<svg width="114" height="113" viewBox="0 0 114 113" fill="none" xmlns="http://www.w3.org/2000/svg">
<g filter="url(#filter0_d_1_11115)">
<ellipse cx="56.7069" cy="46.4424" rx="36.3944" ry="36" fill="#E3B873"/>
</g>
<path d="M57.0502 53.7206C56.6687 53.7206 56.3563 54.0193 56.3563 54.3917V55.7163C56.3563 56.0886 56.6687 56.3873 57.0502 56.3873C57.4318 56.3873 57.7442 56.0886 57.7442 55.7163V54.3917C57.7442 54.0193 57.4318 53.7206 57.0502 53.7206Z" fill="white" stroke="white" stroke-width="0.1"/>
<path d="M73.9514 44.4427L73.9513 44.4426C73.4952 42.2847 72.4723 40.2506 70.9933 38.56C69.5694 36.9324 67.7474 35.6511 65.7158 34.8435C65.3832 33.5074 64.6855 32.1298 63.3166 31.0925C61.9843 30.0828 60.6425 29.8882 60.5826 29.8799L60.5825 29.8799C60.3843 29.8526 60.1827 29.9095 60.0307 30.0367C59.8785 30.164 59.7907 30.349 59.7907 30.5442V33.8478H57.5408C56.945 31.9334 55.1032 30.5357 52.9294 30.5357C50.7077 30.5357 48.8317 31.9953 48.2793 33.9747C45.097 34.4003 42.1698 35.8909 39.9957 38.2045L40.0321 38.2387L39.9957 38.2045C37.7015 40.646 36.4378 43.8068 36.4378 47.1048C36.4378 54.4946 40.4149 60.5049 41.6333 62.1704C42.0188 62.6975 42.6495 63.0115 43.3201 63.0115H46.0608C47.1992 63.0115 48.1284 62.1179 48.1284 61.0156V60.2139C48.8058 60.3117 49.4935 60.3618 50.1819 60.3618H56.3565V61.0156C56.3565 62.1179 57.2857 63.0115 58.4241 63.0115H61.4347C62.402 63.0115 63.2529 62.3495 63.4562 61.4342L63.7799 59.9777C68.0017 58.9762 71.398 56.1198 73.0798 52.4129H75.5953C76.355 52.4129 76.976 51.8165 76.976 51.0795V45.78C76.976 45.4232 76.832 45.088 76.5709 44.8363C76.3101 44.5848 75.9636 44.4465 75.5954 44.4465H75.5953H75.5953H75.5953H75.5952H75.5952H75.5951L73.9525 44.4467C73.9524 44.4463 73.9523 44.446 73.9521 44.4456C73.9518 44.4446 73.9515 44.4436 73.9514 44.4427ZM75.5883 51.0293H75.5882V51.0708H73.6006C73.94 50.0272 74.1492 48.9313 74.2099 47.802C74.23 47.4302 73.9338 47.1161 73.5527 47.0971C73.1718 47.0785 72.8439 47.3606 72.8239 47.7324C72.5538 52.7549 69.0268 57.0489 64.1084 58.499L64.9897 54.5326C65.0707 54.1684 64.8298 53.8126 64.4563 53.7354C64.0835 53.6581 63.7136 53.8872 63.6328 54.2507L62.0994 61.1522C62.0331 61.4505 61.7542 61.6694 61.4347 61.6694H58.424C58.0475 61.6694 57.7442 61.3743 57.7442 61.0156V58.3658C57.7442 57.9935 57.4318 57.6948 57.0503 57.6948C56.6687 57.6948 56.3563 57.9935 56.3563 58.3658V59.0197H50.1818C49.4923 59.0197 48.804 58.9637 48.1283 58.8548V54.3914C48.1283 54.0191 47.8159 53.7204 47.4343 53.7204C47.0528 53.7204 46.7404 54.0191 46.7404 54.3914V61.0156C46.7404 61.3744 46.4371 61.6695 46.0606 61.6695H43.3201C43.0946 61.6695 42.8933 61.5692 42.7663 61.3955L42.7663 61.3955C41.6068 59.8102 37.8257 54.0964 37.8257 47.1047C37.8257 44.1415 38.9609 41.3012 41.0228 39.107L40.9863 39.0728L41.0228 39.107C42.897 37.1124 45.3936 35.7981 48.1181 35.356C48.1332 35.744 48.1986 36.1276 48.3115 36.4974H48.1213C47.7398 36.4974 47.4274 36.7961 47.4274 37.1684C47.4274 37.5407 47.7398 37.8395 48.1213 37.8395H57.7372C58.1188 37.8395 58.4312 37.5407 58.4312 37.1684C58.4312 36.7961 58.1188 36.4974 57.7372 36.4974H57.547C57.6761 36.0749 57.7434 35.6344 57.7443 35.1897H59.7907V36.506C59.7907 36.8783 60.103 37.177 60.4846 37.177C60.8661 37.177 61.1785 36.8783 61.1785 36.506V31.4317C61.7798 31.6608 62.6141 32.1093 63.3079 32.9653C64.0273 33.8528 64.5986 35.1822 64.5986 37.1685C64.5986 37.5408 64.911 37.8395 65.2926 37.8395C65.6741 37.8395 65.9865 37.5408 65.9865 37.1685C65.9865 36.9305 65.9784 36.6805 65.9603 36.4225C67.4763 37.1474 68.8366 38.1727 69.9338 39.4269C71.263 40.9464 72.182 42.7738 72.5916 44.7115C72.7237 45.3367 73.2922 45.7889 73.9424 45.7888L75.5883 45.7887V51.0293ZM52.9293 31.8778C54.8207 31.8778 56.3564 33.3615 56.3564 35.1813C56.3564 35.6361 56.2578 36.0844 56.0715 36.4975H49.7869C49.6008 36.0843 49.5021 35.6361 49.5021 35.1813C49.5021 33.3614 51.0378 31.8778 52.9293 31.8778Z" fill="white" stroke="white" stroke-width="0.1"/>
<path d="M64.7058 44.8827L64.7058 44.8827C65.1137 43.8278 66.191 43.1218 67.3848 43.1218C68.5784 43.1218 69.6559 43.8278 70.0636 44.8827C70.0636 44.8827 70.0636 44.8827 70.0636 44.8827L64.7058 44.8827ZM64.7058 44.8827C64.5709 45.2315 64.7555 45.6177 65.1139 45.7466L64.7058 44.8827ZM66.0057 45.3526C66.2104 44.8232 66.7633 44.4638 67.3847 44.4638C68.006 44.4638 68.559 44.8232 68.7636 45.3526C68.8682 45.6232 69.1334 45.7888 69.4137 45.7888L66.0057 45.3526Z" fill="white" stroke="white" stroke-width="0.1"/>
<path d="M55.9093 47.5179C55.2508 47.0761 54.4015 46.8055 53.6232 46.5932V43.5143C54.225 43.5914 54.7342 43.7638 55.0946 43.9767C55.47 44.1984 55.6695 44.4548 55.6695 44.683C55.6695 45.0553 55.9819 45.354 56.3635 45.354C56.745 45.354 57.0574 45.0553 57.0574 44.683C57.0574 44.0271 56.6791 43.441 56.0582 42.9979C55.4468 42.5615 54.5962 42.2605 53.6232 42.1628V42.1368C53.6232 41.7645 53.3108 41.4657 52.9292 41.4657C52.5477 41.4657 52.2353 41.7645 52.2353 42.1368V42.1628C51.2622 42.2605 50.4117 42.5615 49.8002 42.9979C49.1793 43.441 48.801 44.0271 48.801 44.683C48.801 45.6107 49.2778 46.2416 49.9491 46.6919C50.6076 47.1337 51.4569 47.4044 52.2353 47.6167V50.6956C51.6335 50.6185 51.1243 50.4461 50.7638 50.2332C50.3884 50.0114 50.1889 49.7551 50.1889 49.5269C50.1889 49.1546 49.8765 48.8559 49.495 48.8559C49.1134 48.8559 48.801 49.1546 48.801 49.5269C48.801 50.1827 49.1793 50.7689 49.8002 51.212C50.4117 51.6483 51.2622 51.9494 52.2353 52.0471V52.0731C52.2353 52.4454 52.5477 52.7441 52.9292 52.7441C53.3108 52.7441 53.6232 52.4454 53.6232 52.0731V52.0471C54.5962 51.9494 55.4468 51.6483 56.0582 51.212C56.6791 50.7689 57.0574 50.1827 57.0574 49.5269C57.0574 48.5991 56.5806 47.9682 55.9093 47.5179ZM52.2353 43.5143V46.2107C51.4789 45.9783 50.9693 45.757 50.6474 45.5155C50.3198 45.2697 50.1889 45.0048 50.1889 44.683C50.1889 44.4548 50.3884 44.1984 50.7638 43.9767C51.1243 43.7638 51.6335 43.5914 52.2353 43.5143ZM55.0946 50.2333C54.7342 50.4462 54.225 50.6186 53.6232 50.6957V47.9992C54.3795 48.2316 54.8892 48.4529 55.2111 48.6944C55.5386 48.9403 55.6695 49.2051 55.6695 49.527C55.6695 49.7552 55.47 50.0115 55.0946 50.2333Z" fill="white" stroke="white" stroke-width="0.1"/>
<defs>
<filter id="filter0_d_1_11115" x="0.3125" y="0.442383" width="112.789" height="112" filterUnits="userSpaceOnUse" color-interpolation-filters="sRGB">
<feFlood flood-opacity="0" result="BackgroundImageFix"/>
<feColorMatrix in="SourceAlpha" type="matrix" values="0 0 0 0 0 0 0 0 0 0 0 0 0 0 0 0 0 0 127 0" result="hardAlpha"/>
<feOffset dy="10"/>
<feGaussianBlur stdDeviation="10"/>
<feColorMatrix type="matrix" values="0 0 0 0 0.929412 0 0 0 0 0.752941 0 0 0 0 0.470588 0 0 0 0.2 0"/>
<feBlend mode="normal" in2="BackgroundImageFix" result="effect1_dropShadow_1_11115"/>
<feBlend mode="normal" in="SourceGraphic" in2="effect1_dropShadow_1_11115" result="shape"/>
</filter>
</defs>
</svg>
