<svg width="114" height="29" viewBox="0 0 114 29" fill="none" xmlns="http://www.w3.org/2000/svg">
<rect x="0.000610352" y="13.5421" width="32" height="1.50008" rx="0.750038" fill="#E3B873"/>
<rect x="82.0006" y="13.5421" width="32" height="1.50008" rx="0.750038" fill="#E3B873"/>
<path d="M62.4261 9.22678L57.5806 7.81379C57.2169 7.70832 56.843 7.67118 56.4726 7.68433V7.67221H50.5833L40.1396 4.29898L40.1712 18.5625L43.1692 20.0191L44.9443 15.8012L47.5373 16.8096L48.2097 15.1764L49.1835 16.1228L48.275 17.0061C47.9592 17.313 47.7783 17.7375 47.7783 18.1718C47.7783 19.0605 48.5074 19.7831 49.4143 19.8143C49.4459 20.6756 50.1583 21.3681 51.0445 21.3988C51.0761 22.2601 51.7885 22.9526 52.6747 22.9833C52.7073 23.8647 53.4502 24.5734 54.3648 24.5734C54.8114 24.5734 55.2484 24.3975 55.5639 24.0907L56.4726 23.2076L56.8377 23.5625C57.1535 23.8694 57.5902 24.0453 58.037 24.0453C58.9516 24.0453 59.6948 23.3366 59.7269 22.4551C60.6131 22.4244 61.3255 21.732 61.3571 20.8706C62.2433 20.8399 62.9557 20.1475 62.9873 19.2861C63.8942 19.2544 64.6236 18.5323 64.6236 17.6436C64.6236 17.5686 64.6111 17.4945 64.6008 17.42L65.3806 16.6621L66.0107 17.8876L69.424 16.2286L71.4866 20.0562L73.8613 18.5181V4.86712L62.4261 9.22678ZM42.6062 18.5645L41.257 17.9087L41.2296 5.76407L47.1842 7.68768L42.6062 18.5645ZM46.9321 15.4363L45.3553 14.8236L48.2179 8.0214L49.7757 8.5248L46.9321 15.4363ZM48.8651 18.1718C48.8651 18.0157 48.9295 17.8633 49.0431 17.7527L49.9985 16.8243C50.1121 16.7139 50.2692 16.651 50.4294 16.651C50.7654 16.651 51.0386 16.9169 51.0386 17.2431C51.0386 17.3989 50.9739 17.5515 50.8603 17.6619L49.9052 18.5906C49.7916 18.701 49.6345 18.7636 49.4743 18.7636C49.1383 18.7636 48.8651 18.498 48.8651 18.1718ZM50.4952 19.7563C50.4952 19.6002 50.5597 19.4478 50.6733 19.3372L51.6287 18.4088C51.7423 18.2984 51.8994 18.2355 52.0596 18.2355C52.3955 18.2355 52.6688 18.5014 52.6688 18.8276C52.6688 18.9834 52.6041 19.136 52.4905 19.2464L51.5353 20.1751C51.4218 20.2855 51.2647 20.3481 51.1044 20.3481C50.7685 20.3481 50.4952 20.0825 50.4952 19.7563ZM52.1254 21.3408C52.1254 21.1847 52.1899 21.0323 52.3035 20.9217L53.2589 19.9933C53.3725 19.8829 53.5296 19.82 53.6898 19.82C54.0257 19.82 54.299 20.0858 54.299 20.4121C54.299 20.5678 54.2343 20.7205 54.1207 20.8309L53.1655 21.7596C53.052 21.8699 52.8949 21.9326 52.7346 21.9326C52.3987 21.9326 52.1254 21.667 52.1254 21.3408ZM55.7509 22.4154L54.7957 23.3441C54.6822 23.4544 54.5251 23.5171 54.3648 23.5171C54.0289 23.5171 53.7556 23.2515 53.7556 22.9252C53.7556 22.7692 53.8201 22.6168 53.9337 22.5062L54.8891 21.5778C55.0027 21.4674 55.1598 21.4045 55.32 21.4045C55.6559 21.4045 55.9292 21.6703 55.9292 21.9966C55.9292 22.1523 55.8645 22.305 55.7509 22.4154ZM62.9276 18.2355C62.7673 18.2355 62.6103 18.1728 62.4967 18.0624L57.9436 13.6367L57.1752 14.3836L61.7283 18.809C61.8419 18.9197 61.9066 19.0721 61.9066 19.2281C61.9066 19.5543 61.6333 19.82 61.2974 19.82C61.1371 19.82 60.9801 19.7573 60.8665 19.6469L56.3134 15.2212L55.545 15.9681L60.0981 20.3935C60.2117 20.5041 60.2764 20.6566 60.2764 20.8126C60.2764 21.1388 60.0031 21.4045 59.6672 21.4045C59.5069 21.4045 59.3499 21.3418 59.2363 21.2314L54.6832 16.8057L53.9148 17.5526L58.4679 21.978C58.5815 22.0886 58.6462 22.2411 58.6462 22.3971C58.6462 22.7233 58.3729 22.9889 58.037 22.9889C57.8768 22.9889 57.7197 22.9263 57.6061 22.8159L56.9932 22.2199C57.0041 22.1461 57.016 22.0721 57.016 21.9966C57.016 21.1076 56.2866 20.3853 55.3797 20.3541C55.3482 19.4927 54.6357 18.8003 53.7495 18.7696C53.718 17.9082 53.0055 17.2158 52.1193 17.1851C52.0867 16.3036 51.344 15.5947 50.4294 15.5947C50.3522 15.5947 50.2761 15.6068 50.1997 15.6168L48.6483 14.1089L50.863 8.72854H54.074L52.0787 10.6681C51.758 10.9792 51.582 11.3933 51.582 11.8338C51.582 12.7426 52.3427 13.482 53.278 13.482C53.7246 13.482 54.1616 13.3061 54.4771 12.9992L55.9168 11.5996C56.2113 11.3144 56.73 11.3033 57.0367 11.5764L58.3071 12.7083C58.7293 13.0843 59.1984 13.3972 59.7004 13.6422L63.3585 17.2245C63.4721 17.3352 63.5368 17.4876 63.5368 17.6436C63.5368 17.9698 63.2635 18.2355 62.9276 18.2355ZM64.0802 16.4323L61.8466 14.2448C62.0462 14.2632 62.2473 14.2742 62.45 14.2742V13.2179C61.1849 13.2179 59.9742 12.7602 59.0418 11.9292L57.7712 10.7979C57.054 10.1578 55.8374 10.1833 55.1489 10.8533L53.7095 12.2526C53.5954 12.3625 53.4383 12.4257 53.278 12.4257C52.9421 12.4257 52.6688 12.16 52.6688 11.8338C52.6688 11.6752 52.7317 11.5269 52.8469 11.4147L54.9183 9.40163C55.527 8.81003 56.441 8.58489 57.2681 8.82576L62.0685 10.2253L64.8674 15.6671L64.0802 16.4323ZM66.4966 16.4705L63.2019 10.0654L65.6082 9.14787L68.9196 15.2927L66.4966 16.4705ZM72.7746 17.9531L71.8886 18.5271L66.626 8.76026L72.7746 6.41628V17.9531Z" fill="#E3B873"/>
<ellipse cx="59.6667" cy="1.58834" rx="0.485591" ry="0.471977" fill="#E3B873"/>
<ellipse cx="47.4099" cy="23.8747" rx="0.485591" ry="0.471977" fill="#E3B873"/>
<ellipse cx="49.468" cy="25.5159" rx="0.485591" ry="0.471977" fill="#E3B873"/>
<ellipse cx="51.8166" cy="26.7199" rx="0.485591" ry="0.471977" fill="#E3B873"/>
<ellipse cx="54.3655" cy="27.4901" rx="0.485591" ry="0.471977" fill="#E3B873"/>
<ellipse cx="62.2141" cy="2.33962" rx="0.485591" ry="0.471977" fill="#E3B873"/>
<ellipse cx="64.5632" cy="3.55886" rx="0.485591" ry="0.471977" fill="#E3B873"/>
<path d="M66.8305 2.87662V5.59976H63.9971" stroke="#E3B873" stroke-linecap="round" stroke-linejoin="round"/>
<path d="M45.0104 23.567L45.0104 21.3637L47.2744 21.3637" stroke="#E3B873" stroke-linecap="round" stroke-linejoin="round"/>
<path d="M47.8008 4.80406C49.3359 3.5057 50.3124 2.90836 52.1519 2.21025C54.1033 1.46967 55.4237 1.29576 57.5441 1.29578" stroke="#E3B873" stroke-linecap="round"/>
<path d="M68.4046 21.8022C67.2633 23.5325 65.1376 25.222 63.4089 26.1497C61.575 27.1338 59.6102 27.6884 56.9931 27.8209" stroke="#E3B873" stroke-linecap="round"/>
</svg>
